# xmcd CD database file
#
# Track frame offsets:
#	150
#	25785
#	44907
#	70655
#
# Disc length: 1192 seconds
#
# Revision: 0
# Processed by: cddbd v1.5PL3 Copyright (c) Steve Scherf et al.
# Submitted via: CDex 1.50Beta7
#
DISCID=3104a604
DTITLE=愛内里菜 - Deep Freeze
DYEAR=2002
DGENRE=JPop
TTITLE0=Deep Freeze
TTITLE1=White X-mas Song
TTITLE2=Deep Freeze〜Instrumental〜
TTITLE3=White X-mas Song〜Instrumental〜
EXTD=YEAR: 2002
EXTT0=
EXTT1=
EXTT2=
EXTT3=
PLAYORDER=
